{"title":"Horrible Bosses 2011 CAM XVID AC3-BBRG","uid":6600271,"size":1442004632,"categoryP":"video","categoryS":"movies","magnet":"?xt=urn:btih:3d054cfa7cd14b19cc9e08e9309f7efbbfd28ad0&amp;dn=Horrible+Bosses+2011+CAM+XVID+AC3-BBRG&amp;tr=udp%3A%2F%2Ftracker.openbittorrent.com%3A80&amp;tr=udp%3A%2F%2Fopen.demonii.com%3A1337&amp;tr=udp%3A%2F%2Ftracker.coppersurfer.tk%3A6969&amp;tr=udp%3A%2F%2Fexodus.desync.com%3A6969","seeders":0,"leechers":1,"uploader":"sceneline","files":4,"time":1313176796,"description":"- &lt;a href=&quot;\nhttp://www.Speed.Cd&quot; rel=&quot;nofollow&quot; target=&quot;_NEW&quot;&gt;\nhttp://www.Speed.Cd&lt;/a&gt; \n       &lt;a href=&quot;\nhttp://www.Speed.Cd&quot; rel=&quot;nofollow&quot; target=&quot;_NEW&quot;&gt;\nhttp://www.Speed.Cd&lt;/a&gt;      fast  and The Hottest Private Tracker on the net\n\n(((--Registration will be open on june every weekend--)))\n\nPlease Seed back to make the speed Faster!!!\n\n------------------nfo--------------------------\n-\n ______ ______                         ______              ___________\n ___  /____  /___  ______________      ___  /________________  /___  /_____________________ ______________ _\n __  __ \\_  /_  / / /  _ \\_  ___/________  __ \\_  ___/  __ \\  __/_  __ \\  _ \\_  ___/_  ___/ __  ___/_  __ `/\n _  /_/ /  / / /_/ //  __/(__  )_/_____/  /_/ /  /   / /_/ / /_ _  / / /  __/  /   _(__  )___  /   _  /_/ /\n /_.___//_/  \\__,_/ \\___//____/        /_.___//_/    \\____/\\__/ /_/ /_/\\___//_/    /____/_(_)_/    _\\__, /\n                                                                                                   /____/\n                                     ___________                    ___________\n                              ______ ___  /__  /____  _____________ __  /__&lt;  /\n                              _  __ `/_  /__  /__  / / /  ___/  __ `/  __/_  /\n                              / /_/ /_  / _  / _  /_/ // /__ / /_/ // /_ _  /\n                              \\__,_/ /_/  /_/  _\\__, / \\___/ \\__,_/ \\__/ /_/\n                                               /____/\n\n\n\n\n\n\nGeneral\nRELEASE DATE 10/8/2011\nComplete name                    : Horrible Bosses 2011 CAM XVID AC3-BBRG.avi\nFormat                           : AVI\nFormat/Info                      : Audio Video Interleave\nFile size                        : 1.34 GiB\nDuration                         : 1h 33mn\nOverall bit rate                 : 2 059 Kbps\nWriting library                  : VirtualDub build 30091/release\n\nVideo\nID                               : 0\nFormat                           : MPEG-4 Visual\nFormat profile                   : Advanced Simple@L5\nFormat settings, BVOP            : 2\nFormat settings, QPel            : No\nFormat settings, GMC             : No warppoints\nFormat settings, Matrix          : Default (H.263)\nMuxing mode                      : Packed bitstream\nCodec ID                         : XVID\nCodec ID/Hint                    : XviD\nDuration                         : 1h 33mn\nBit rate                         : 1 601 Kbps\nWidth                            : 720 pixels\nHeight                           : 304 pixels\nDisplay aspect ratio             : 2.35:1\nFrame rate                       : 25.000 fps\nColor space                      : YUV\nChroma subsampling               : 4:2:0\nBit depth                        : 8 bits\nScan type                        : Progressive\nCompression mode                 : Lossy\nBits/(Pixel*Frame)               : 0.293\nStream size                      : 1.04 GiB (78%)\nWriting library                  : XviD 1.2.1 (UTC 2008-12-04)\n\nAudio\nID                               : 1\nFormat                           : AC-3\nFormat/Info                      : Audio Coding 3\nMode extension                   : CM (complete main)\nCodec ID                         : 2000\nDuration                         : 1h 33mn\nBit rate mode                    : Constant\nBit rate                         : 448 Kbps\nChannel(s)                       : 2 channels\nChannel positions                : Front: L R\nSampling rate                    : 48.0 KHz\nBit depth                        : 16 bits\nCompression mode                 : Lossy\nStream size                      : 299 MiB (22%)\nAlignment                        : Aligned on interleaves\nInterleave, duration             : 40 ms (1.00 video frame)\nInterleave, preload duration     : 512 ms\n\n\nEncoder:allycat1","torrent":{"xt":"urn:btih:3d054cfa7cd14b19cc9e08e9309f7efbbfd28ad0","amp;dn":"Horrible+Bosses+2011+CAM+XVID+AC3-BBRG","amp;tr":["udp%3A%2F%2Ftracker.openbittorrent.com%3A80","udp%3A%2F%2Fopen.demonii.com%3A1337","udp%3A%2F%2Ftracker.coppersurfer.tk%3A6969","udp%3A%2F%2Fexodus.desync.com%3A6969"],"infoHash":"3d054cfa7cd14b19cc9e08e9309f7efbbfd28ad0","infoHashBuffer":{"type":"Buffer","data":[61,5,76,250,124,209,75,25,204,158,8,233,48,159,126,251,191,210,138,208]},"announce":[],"urlList":[]}}